<?xml version="1.0" encoding="utf-8"?>
<!-- Generator: Adobe Illustrator 26.1.0, SVG Export Plug-In . SVG Version: 6.00 Build 0)  -->
<svg version="1.1" id="Layer_1" xmlns="http://www.w3.org/2000/svg" xmlns:xlink="http://www.w3.org/1999/xlink" x="0px" y="0px"
	 viewBox="0 0 512 512" style="enable-background:new 0 0 512 512;" xml:space="preserve">
<path d="M103.09,485c-14.29-6.07-18.89-13.53-18.04-28.71c0.62-10.97,1.07-21.96,1.4-32.94c0.73-23.93,1.28-47.86,2-71.78
	c0.81-26.98,1.71-53.96,2.58-80.95c0.54-16.83,1.1-33.66,1.65-50.48c0.08-2.46,0.26-4.54-3.5-4.79
	c-17.24-1.16-27.98-11.74-28.11-28.71c-0.3-39.54-0.16-79.09-0.05-118.63c0.02-8.71,6.87-13.18,14.71-10.1
	c4.95,1.95,5.97,6.01,5.99,10.55c0.04,10.16,0.01,20.33,0.02,30.49c0.01,16.01-0.05,32.02,0.08,48.04
	c0.05,6.33,4.48,11.17,10.41,11.92c8.16,1.04,14.1-2.11,16.17-8.52c0.7-2.18,0.55-4.41,0.56-6.63c0.02-25.06-0.01-50.13,0.03-75.19
	c0.01-6.95,2.57-10.39,8.23-11.35c5.9-1.01,10.55,2.09,11.52,7.83c0.3,1.77,0.25,3.61,0.25,5.41c0.02,25.06-0.03,50.13,0.05,75.19
	c0.02,8.52,5.26,13.39,14.01,13.38c8.64-0.01,13.9-4.99,13.92-13.48c0.06-25.34,0.03-50.68,0.02-76.02c0-2.23,0.01-4.45,0.76-6.6
	c1.33-3.8,4.8-5.98,9.37-5.86c4.62,0.12,8.14,2.38,9.11,6.24c0.54,2.14,0.74,4.4,0.75,6.61c0.04,38.29,0.06,76.58,0.02,114.87
	c-0.02,15.85-7.81,26.31-22.03,29.98c-2.26,0.58-4.54,0.82-6.8,0.62c-3.72-0.33-4.64,1.3-4.51,4.64
	c0.45,11.12,0.62,22.26,1.01,33.38c0.41,11.68,1.06,23.35,1.42,35.03c0.73,24.2,1.26,48.41,2.02,72.62
	c1.03,32.96,2.17,65.92,3.33,98.88c0.24,6.85-1.54,12.94-6.27,18.1c-3.25,3.54-7.5,5.49-12.01,6.97
	C123.12,485,113.11,485,103.09,485z"/>
<path d="M396.92,304.01c-8.5-14.75-19.23-26.13-32.18-34.17c-12.95-8.04-26.2-12.39-39.75-13.05v-3.99
	c18.73-4.78,34.87-13.95,48.42-27.5c13.55-13.55,20.33-33.08,20.33-58.58c0-20.19-4.68-38.36-14.05-54.5
	c-9.37-16.14-23.58-28.96-42.64-38.46c-19.06-9.5-43.08-14.25-72.03-14.25h-75v52.41h71.22c24.44,0,42.57,5.68,54.4,17.04
	c11.82,11.36,17.73,25.54,17.73,42.54c0,19.66-7.11,35.34-21.32,47.03c-14.22,11.69-31.68,17.54-52.41,17.54H190v48.02h78.19
	c24.71,0,44.27,6.94,58.68,20.82c14.41,13.88,21.62,30.52,21.62,49.92c0,17.14-6.34,31.42-19.03,42.84
	c-12.69,11.43-33.84,17.14-63.47,17.14h-76v52.8h81.98c31.62,0,57.59-4.81,77.91-14.45c20.33-9.63,35.37-22.72,45.13-39.26
	c9.76-16.54,14.65-35.24,14.65-56.09C409.67,336.69,405.42,318.76,396.92,304.01z"/>
</svg>
